HIERARCHY
ROOT hip
{
	OFFSET 0.000000 0.000000 0.000000 
	CHANNELS 6 Xposition Yposition Zposition Xrotation Zrotation Yrotation
	JOINT abdomen
	{
		OFFSET 0.000000 3.402643 0.000000 
		CHANNELS 3 Xrotation Zrotation Yrotation
		JOINT chest
		{
			OFFSET 0.000000 8.438565 -0.680529 
			CHANNELS 3 Xrotation Zrotation Yrotation
			JOINT neck
			{
				OFFSET 0.000000 10.207942 -0.272212 
				CHANNELS 3 Xrotation Zrotation Yrotation
				JOINT head
				{
					OFFSET 0.000000 3.130431 0.000000 
					CHANNELS 3 Xrotation Zrotation Yrotation
					End Site
					{
						OFFSET 0.000000 3.130435 0.000000 
					}
				}
			}
			JOINT lCollar
			{
				OFFSET 3.470700 6.669187 -0.816635 
				CHANNELS 3 Yrotation Zrotation Xrotation
				JOINT lShldr
				{
					OFFSET 3.198488 0.000000 0.000000 
					CHANNELS 3 Zrotation Yrotation Xrotation
					JOINT lForeArm
					{
						OFFSET 10.139888 0.000000 0.000000 
						CHANNELS 3 Yrotation Zrotation Xrotation
						JOINT lHand
						{
							OFFSET 8.370511 0.000000 0.000000 
							CHANNELS 3 Zrotation Yrotation Xrotation
							End Site
							{
								OFFSET 4.083176 0.000000 0.000000 
							}
						}
					}
				}
			}
			JOINT rCollar
			{
				OFFSET -3.470700 6.669187 -0.816635 
				CHANNELS 3 Yrotation Zrotation Xrotation
				JOINT rShldr
				{
					OFFSET -3.198488 0.000000 0.000000 
					CHANNELS 3 Zrotation Yrotation Xrotation
					JOINT rForeArm
					{
						OFFSET -10.139888 0.000000 0.000000 
						CHANNELS 3 Yrotation Zrotation Xrotation
						JOINT rHand
						{
							OFFSET -8.370511 0.000000 0.000000 
							CHANNELS 3 Zrotation Yrotation Xrotation
							End Site
							{
								OFFSET -4.083176 0.000000 0.000000 
							}
						}
					}
				}
			}
		}
	}
	JOINT lThigh
	{
		OFFSET 5.308129 -1.633274 1.361059 
		CHANNELS 3 Xrotation Zrotation Yrotation
		JOINT lShin
		{
			OFFSET -2.041588 -20.007561 0.000000 
			CHANNELS 3 Xrotation Zrotation Yrotation
			JOINT lFoot
			{
				OFFSET 0.000000 -19.190928 -1.224953 
				CHANNELS 3 Xrotation Yrotation Zrotation
				End Site
				{
					OFFSET 0.000000 -2.449906 4.627600 
				}
			}
		}
	}
	JOINT rThigh
	{
		OFFSET -5.308129 -1.633274 1.361059 
		CHANNELS 3 Xrotation Zrotation Yrotation
		JOINT rShin
		{
			OFFSET 2.041588 -20.007561 0.000000 
			CHANNELS 3 Xrotation Zrotation Yrotation
			JOINT rFoot
			{
				OFFSET 0.000000 -19.190928 -1.224953 
				CHANNELS 3 Xrotation Yrotation Zrotation
				End Site
				{
					OFFSET 0.000000 -2.449906 4.627600 
				}
			}
		}
	}
}
MOTION
Frames: 17
Frame Time: 0.033333
-1.828157 48.771210 -1.394585 1.519907 0.986322 -0.205048 0.000000 0.000000 0.000000 -1.762110 0.693217 -1.162143 6.976014 0.712770 1.054849 15.447977 0.956620 1.679943 -4.895441 -6.948191 -1.225172 -63.587517 -2.112895 27.325914 -48.645565 -8.870685 29.003841 1.774904 1.841149 -3.497652 3.561566 13.299363 -1.553629 63.938049 -12.992121 8.347740 41.964752 3.119204 20.555935 -11.265265 0.619744 -3.846524 3.277589 11.438035 7.802617 -3.543687 -3.324459 2.055757 2.894170 -0.258444 -9.625965 2.106391 -7.833006 -8.359368 1.777003 4.177831 -9.262098 -3.857780 -0.149498 3.714263 
-2.213869 48.735100 -1.669918 1.403691 1.142555 0.361451 0.000000 0.000000 0.000000 -1.273625 0.917665 -1.474733 7.639358 0.790918 0.898621 17.572823 0.439223 1.855564 -5.058254 -6.633492 -0.753085 -63.476727 -3.676620 26.841787 -47.682732 -9.190111 29.207815 1.569185 2.631075 -3.499878 3.112666 13.274608 -1.092905 63.001781 -12.202450 8.346438 42.125759 3.129535 20.328468 -12.342098 0.769299 -3.895647 2.741504 11.633382 7.535731 -3.545675 -3.083280 1.634374 3.565962 -0.340612 -10.126429 0.721564 -7.858905 -8.447694 4.510894 4.509408 -9.320200 -5.156058 -0.159305 3.246469 
-2.597811 48.717873 -1.960550 1.415285 1.396192 1.172241 0.000000 0.000000 0.000000 -0.765524 1.103019 -1.718995 8.391291 0.781152 0.908385 18.604734 0.322078 1.953204 -5.155732 -6.481153 -0.253473 -63.476494 -4.913325 25.552219 -46.591862 -9.366325 29.209604 2.084544 3.143027 -3.496049 2.884904 13.749139 -0.634023 61.456676 -11.833302 7.810266 42.408142 3.117851 19.330170 -13.265350 0.211985 -3.872114 1.873218 11.712499 7.027771 -3.503013 -2.758595 1.254157 4.649162 -0.448896 -10.647472 -0.312737 -7.831015 -8.483307 6.214278 4.658976 -9.823421 -5.918940 -0.150439 2.842189 
-2.970544 48.715122 -2.244206 1.602880 1.873705 2.130322 0.000000 0.000000 0.000000 -0.377028 1.054099 -1.914277 8.977383 0.790916 0.908386 19.220865 0.331819 2.050860 -5.499116 -6.384446 0.078369 -63.688213 -5.287055 23.680323 -45.920174 -9.308759 28.657513 2.886472 3.899252 -3.491585 2.824660 14.457475 -0.324190 59.412079 -11.976749 7.139207 42.425682 3.204094 17.834417 -14.223277 0.339321 -3.913470 0.721938 11.512627 6.310611 -3.214003 -2.449322 1.407915 6.074412 -0.608169 -11.103489 -1.337649 -8.011589 -8.581661 7.688590 4.768706 -10.284539 -6.641404 -0.168769 2.487574 
-3.322505 48.721146 -2.571633 2.234319 2.427909 3.176768 0.000000 0.000000 0.000000 -0.246602 0.917419 -1.982637 9.261456 1.035069 0.742419 19.873869 -0.243977 2.099590 -5.702144 -6.035066 0.196346 -64.295715 -5.309154 21.848122 -45.243519 -9.130892 27.685450 2.931736 4.420827 -3.478876 2.855711 14.998216 -0.243806 57.497871 -12.549182 6.596383 42.082607 3.417701 16.221430 -15.114464 0.341941 -3.945447 -0.986600 11.130546 5.561229 -2.939654 -2.292667 2.596390 8.135077 -0.794541 -11.287809 -2.791773 -8.353321 -8.660557 8.940371 4.868638 -11.073611 -7.099389 -0.152170 2.113250 
-3.646647 48.717896 -2.894527 2.984282 2.960549 4.263720 0.000000 0.000000 0.000000 -0.269972 0.907505 -2.246276 9.637981 0.917924 0.566490 19.887178 -0.409876 2.119156 -5.820695 -6.258091 0.175959 -64.330963 -4.598913 20.131212 -45.508614 -8.784587 27.212152 2.587302 5.211875 -3.484556 2.710073 15.026310 -0.284055 56.015003 -13.050947 6.175283 41.412090 3.656434 15.497519 -15.360206 0.059741 -3.914942 -2.733773 10.620603 4.840303 -2.840951 -2.224699 4.092112 10.188664 -0.996343 -11.003307 -4.401431 -8.634292 -8.569947 10.251954 4.822577 -12.002822 -7.605485 -0.144958 1.937352 
-3.935588 48.736752 -3.191944 3.558715 3.344447 5.409966 0.000000 0.000000 0.000000 -0.119778 1.004997 -2.373367 9.857444 1.152337 0.195469 20.082224 -1.015023 1.972866 -6.021317 -5.961634 0.322802 -64.698746 -4.052201 18.781086 -45.396290 -8.332007 27.780474 1.250773 5.214495 -3.494875 2.150911 14.080204 -0.052080 56.105762 -13.001447 5.579912 39.858482 3.847851 15.681657 -15.051401 -0.468811 -3.848213 -4.316271 10.116565 4.325711 -2.748203 -2.202311 5.766478 12.357931 -1.091163 -9.971136 -5.320714 -8.843560 -8.576456 10.687081 4.858159 -12.675433 -7.683292 -0.128255 1.634607 
-4.226747 48.731449 -3.443563 4.022550 3.687236 6.488154 0.000000 0.000000 0.000000 0.153207 1.073393 -2.246432 9.795820 1.318359 0.039277 20.373417 -1.210380 1.738512 -6.087282 -5.453042 0.585535 -65.253212 -3.857404 18.343315 -44.906322 -8.606233 24.323027 1.627965 5.414660 -3.493943 2.110342 13.827108 0.239094 55.297295 -13.701050 5.409266 39.327991 3.995551 15.622500 -14.497408 -0.407675 -3.838559 -5.748034 9.660560 3.926842 -2.666906 -2.226658 7.980587 14.207944 -1.167230 -9.246118 -6.365106 -9.009364 -8.586963 11.521039 4.881066 -13.765126 -7.961192 -0.118876 1.479240 
-4.469613 48.725040 -3.660545 4.251882 3.996821 7.714602 0.000000 0.000000 0.000000 0.495959 1.122293 -2.099972 10.082017 1.640615 -0.204994 20.175770 -1.210583 1.387028 -6.176890 -5.293689 0.907118 -65.511414 -3.203068 17.646055 -45.022667 -8.544768 22.501795 0.203540 5.393976 -3.529526 2.219418 14.288616 0.541956 53.532501 -14.915468 5.769775 38.672977 4.125839 15.455669 -14.016151 -0.432350 -3.827643 -6.773036 9.173217 3.466570 -2.469540 -2.146835 9.440949 14.759805 -1.250675 -9.532388 -6.969446 -9.222688 -8.737952 12.221734 4.898375 -14.855426 -8.208297 -0.112631 1.365028 
-4.700745 48.711086 -3.827502 4.476446 4.139073 8.910578 0.000000 0.000000 0.000000 0.761845 1.366320 -2.041366 10.166046 1.874899 -0.595704 19.946264 -1.874688 1.045321 -6.307007 -5.546525 1.141553 -65.681694 -2.177665 16.420805 -44.765331 -8.326036 23.645035 0.542999 4.201512 -3.505400 1.973647 13.994556 0.842674 52.750988 -15.331922 5.855784 37.409760 4.253116 16.281649 -13.280478 -0.604430 -3.790848 -7.714121 8.846711 3.085243 -2.265342 -2.127816 10.278316 15.394242 -1.337524 -9.794426 -7.458755 -9.244115 -8.750957 12.777901 4.917534 -15.918541 -8.464319 -0.100183 1.264312 
-4.887721 48.710453 -3.954559 4.763715 4.232744 9.929841 0.000000 0.000000 0.000000 0.875660 1.542090 -1.934207 10.205626 1.894313 -0.869311 19.746977 -1.708883 0.625013 -6.118742 -5.566350 1.268518 -66.463966 -1.140319 14.989096 -44.262390 -8.021884 25.163300 1.347452 3.674317 -3.501321 2.133550 14.371186 0.925402 51.085106 -16.300022 6.284325 37.156475 4.423741 16.249285 -13.351477 -0.117171 -3.836208 -8.532520 8.532262 2.689729 -2.089279 -2.020251 10.743294 15.779757 -1.424772 -9.926688 -7.880708 -9.247658 -8.745348 13.031902 4.849452 -16.810980 -8.552804 -0.116761 1.267618 
-5.038544 48.713253 -4.033165 5.032732 4.194949 10.605374 0.000000 0.000000 0.000000 0.808733 1.757083 -1.651112 10.428456 2.011487 -0.869633 19.551384 -1.679663 0.312366 -5.730185 -5.220703 1.220111 -67.571037 0.257187 13.913070 -43.246796 -7.925232 25.280895 6.569238 2.850193 -3.531535 2.336304 14.390846 0.854271 50.361176 -17.115833 6.091653 36.257023 4.476656 16.625587 -13.361856 -0.108344 -3.838441 -9.169930 8.417956 2.579931 -1.941355 -2.087295 11.166806 16.014442 -1.395497 -9.919666 -8.182839 -9.110005 -8.653200 13.001385 4.799218 -17.666733 -8.524295 -0.104087 1.208951 
-5.127437 48.740932 -4.063834 5.146208 4.579012 11.227730 0.000000 0.000000 0.000000 0.832613 1.552305 -1.347955 10.598798 2.109068 -0.976979 19.618376 -1.494141 0.029287 -5.580624 -4.866857 1.229228 -68.819359 1.990182 12.563215 -42.273308 -7.612802 26.381052 12.051030 1.143510 -3.710065 2.503025 14.336513 0.894396 50.115288 -17.770861 5.329035 35.474369 4.379324 16.781973 -13.490551 -0.238037 -3.839386 -9.388178 7.826414 2.178692 -1.887578 -2.036476 11.318597 16.131229 -1.446397 -9.926050 -8.210665 -9.390871 -8.720026 13.070874 4.705627 -18.216869 -8.542984 -0.110524 1.259741 
-5.137616 48.769360 -4.058888 5.070751 4.807768 11.859351 0.000000 0.000000 0.000000 0.937700 1.571785 -1.416286 10.630509 2.099163 -1.182278 19.717787 -1.933594 -0.029610 -5.413523 -4.913637 1.346626 -69.783188 3.853511 11.151237 -41.976357 -7.093038 27.845316 19.261633 0.755046 -3.905144 2.367460 14.242110 1.015172 49.790077 -17.889299 4.585172 35.242329 4.379772 16.303722 -14.144725 -0.412478 -3.833832 -9.430585 7.263202 1.738952 -1.805703 -1.903440 11.153464 16.401823 -1.471349 -10.087705 -7.898098 -9.664005 -8.979565 12.908882 4.725633 -18.599142 -8.532393 -0.098035 1.276288 
-5.130405 48.779922 -4.015466 4.961112 5.089138 12.149075 0.000000 0.000000 0.000000 0.971447 1.483976 -1.328438 10.855010 2.021018 -1.231081 19.582447 -2.314452 -0.058940 -5.335259 -5.331842 1.347674 -70.227798 6.178991 9.612032 -42.295967 -6.673787 27.107967 24.130302 1.012144 -3.976970 2.395209 13.931389 1.043575 49.853767 -18.152756 3.784881 35.275177 4.239265 15.599519 -13.820837 -0.573680 -3.801251 -9.242903 6.910096 1.655203 -1.692171 -2.122912 10.450301 16.491190 -1.533243 -10.166508 -7.683431 -9.966570 -9.150480 13.089199 4.730737 -18.651386 -8.688064 -0.134684 1.367206 
-5.087243 48.786839 -3.965527 4.862950 5.236449 12.425758 0.000000 0.000000 0.000000 0.878934 1.454784 -1.152468 11.226656 2.011262 -1.221322 19.128687 -2.343738 -0.185791 -5.280600 -5.555801 1.251019 -70.997498 8.174006 7.353266 -42.179588 -6.364532 23.579655 25.786694 1.135069 -3.985391 2.458409 13.803232 0.993846 50.119774 -18.608120 2.892258 35.694820 4.072629 14.610929 -14.216916 -0.654632 -3.813659 -9.097337 6.686241 1.618179 -1.585723 -2.278964 9.628024 16.159986 -1.419056 -9.928592 -7.477996 -10.122124 -9.272878 13.172397 4.666762 -18.798161 -8.762973 -0.141403 1.514888 
-5.044899 48.781689 -3.935627 5.149258 5.195755 12.553045 0.000000 0.000000 0.000000 0.673313 1.445005 -1.182004 10.931840 1.767232 -1.133177 18.971348 -2.119131 -0.176022 -5.061860 -5.709248 1.055965 -71.566635 9.288218 5.063815 -41.974892 -6.068193 19.899591 26.196701 1.886750 -3.828389 2.560635 13.745736 0.771402 50.214542 -18.143621 2.150661 36.289429 3.986880 13.710552 -14.858496 -0.424942 -3.847856 -9.348212 6.664555 1.464602 -1.518084 -2.279117 8.852340 16.221451 -1.439031 -10.009228 -7.760651 -10.150756 -9.178138 13.309128 4.608409 -19.027220 -8.827945 -0.146011 1.652873 
